<svg width="16" height="20" viewBox="0 0 16 20" fill="none" xmlns="http://www.w3.org/2000/svg">
<path fill-rule="evenodd" clip-rule="evenodd" d="M2.16667 0.833313H10.8452L15.5 5.48814V17.5C15.5 18.4205 14.7538 19.1666 13.8333 19.1666H2.16667C1.24619 19.1666 0.5 18.4205 0.5 17.5V2.49998C0.5 1.57951 1.24619 0.833313 2.16667 0.833313ZM8.83333 2.49998H2.16667V17.5H13.8333V7.49998H10.5C9.57952 7.49998 8.83333 6.75379 8.83333 5.83331V2.49998ZM10.5 2.84516V5.83331H13.4882L10.5 2.84516ZM4.66667 14.1666V12.5H9.66667V14.1666H4.66667ZM4.66667 9.16665V10.8333H11.3333V9.16665H4.66667Z" fill="black"/>
</svg>
