<svg width="18" height="17" viewBox="0 0 18 17" fill="none" xmlns="http://www.w3.org/2000/svg">
<path fill-rule="evenodd" clip-rule="evenodd" d="M11.8758 0.168926C12.7608 -0.0839479 13.6833 0.428539 13.9362 1.3136C13.9787 1.4625 14.0003 1.61661 14.0003 1.77147V3.16669H15.667C16.5875 3.16669 17.3337 3.91288 17.3337 4.83336V14.8334C17.3337 15.7538 16.5875 16.5 15.667 16.5H2.33366C1.41318 16.5 0.666992 15.7538 0.666992 14.8334H0.689245C0.674452 14.7437 0.666992 14.653 0.666992 14.5619V4.62861C0.666992 3.88447 1.16029 3.2305 1.87579 3.02607L11.8758 0.168926ZM7.45037 14.8334H15.667V8.16669H14.0003V11.7048C14.0003 12.4489 13.507 13.1029 12.7915 13.3073L7.45037 14.8334ZM15.667 4.83336V6.50002H14.0003V4.83336H15.667ZM2.33366 4.62859V14.5619L12.3337 11.7048V1.77144L2.33366 4.62859ZM10.667 6.50002C10.667 6.96026 10.2939 7.33336 9.83366 7.33336C9.37342 7.33336 9.00033 6.96026 9.00033 6.50002C9.00033 6.03979 9.37342 5.66669 9.83366 5.66669C10.2939 5.66669 10.667 6.03979 10.667 6.50002Z" fill="black"/>
</svg>
