<svg width="52" height="10" viewBox="0 0 52 10" fill="none" xmlns="http://www.w3.org/2000/svg">
<path d="M5 8.03684L8.09 10L7.27 6.3L10 3.81053L6.405 3.48421L5 0L3.595 3.48421L0 3.81053L2.725 6.3L1.91 10L5 8.03684Z" fill="black"/>
<path d="M15.3999 8.03684L18.4899 10L17.6699 6.3L20.3999 3.81053L16.8049 3.48421L15.3999 0L13.9949 3.48421L10.3999 3.81053L13.1249 6.3L12.3099 10L15.3999 8.03684Z" fill="black"/>
<path d="M25.7998 8.03684L28.8898 10L28.0698 6.3L30.7998 3.81053L27.2048 3.48421L25.7998 0L24.3948 3.48421L20.7998 3.81053L23.5248 6.3L22.7098 10L25.7998 8.03684Z" fill="black"/>
<path d="M36.2002 8.03684L39.2902 10L38.4702 6.3L41.2002 3.81053L37.6052 3.48421L36.2002 0L34.7952 3.48421L31.2002 3.81053L33.9252 6.3L33.1102 10L36.2002 8.03684Z" fill="black"/>
<path d="M46.6001 7.05263V2.15789L47.4551 4.27895L49.6451 4.47368L47.9851 5.99474L48.4801 8.24737L46.6001 7.05263ZM51.6001 3.81053L48.0051 3.48947L46.6001 0L45.1951 3.48947L41.6001 3.81053L44.3251 6.3L43.5101 10L46.6001 8.03684L49.6901 10L48.8701 6.3L51.6001 3.81053Z" fill="black"/>
</svg>
