<svg width="23" height="23" viewBox="0 0 23 23" fill="none" xmlns="http://www.w3.org/2000/svg">
<path fill-rule="evenodd" clip-rule="evenodd" d="M11.5001 22.9584C5.17182 22.9584 0.041748 17.8283 0.041748 11.5C0.041748 5.17176 5.17182 0.041687 11.5001 0.041687C17.8283 0.041687 22.9584 5.17176 22.9584 11.5C22.9584 17.8283 17.8283 22.9584 11.5001 22.9584ZM11.5001 20.875C16.6778 20.875 20.8751 16.6777 20.8751 11.5C20.8751 6.32235 16.6778 2.12502 11.5001 2.12502C6.32241 2.12502 2.12508 6.32235 2.12508 11.5C2.12508 16.6777 6.32241 20.875 11.5001 20.875ZM8.06998 16.4033L11.5001 12.9732L14.9302 16.4033L16.4033 14.9301L12.9732 11.5L16.4033 8.06992L14.9302 6.59678L11.5001 10.0269L8.06998 6.59678L6.59685 8.06992L10.0269 11.5L6.59685 14.9301L8.06998 16.4033Z" fill="black"/>
</svg>
