<svg width="42" height="42" viewBox="0 0 42 42" fill="none" xmlns="http://www.w3.org/2000/svg">
<path fill-rule="evenodd" clip-rule="evenodd" d="M4.33342 0.166626H37.6668C39.9679 0.166626 41.8334 2.03211 41.8334 4.33329V37.6666C41.8334 39.9678 39.9679 41.8333 37.6668 41.8333H4.33342C2.03223 41.8333 0.166748 39.9678 0.166748 37.6666V4.33329C0.166748 2.03211 2.03223 0.166626 4.33342 0.166626ZM4.33342 4.33329V37.6666H37.6667V4.33329H4.33342ZM19.1939 21.0091H23.0834V33.5H27.2501V21.0091H31.3801V16.8424H27.2501V14.75C27.2501 13.5994 28.1828 12.6666 29.3334 12.6666H31.4167V8.49996H29.3334C25.8816 8.49996 23.0834 11.2982 23.0834 14.75V16.8424H19.1939V21.0091Z" fill="black"/>
</svg>
