<svg width="28" height="28" viewBox="0 0 28 28" fill="none" xmlns="http://www.w3.org/2000/svg">
<path fill-rule="evenodd" clip-rule="evenodd" d="M14 0.25C21.5939 0.25 27.75 6.40608 27.75 14C27.75 21.5939 21.5939 27.75 14 27.75C6.40608 27.75 0.25 21.5939 0.25 14C0.25 6.40608 6.40608 0.25 14 0.25ZM25.1515 15.4955C23.8263 16.1848 22.0809 16.7612 20.099 17.1586C19.8173 20.0361 19.151 22.5762 18.1818 24.4471C21.8807 22.9652 24.6095 19.5757 25.1515 15.4955ZM17.7329 15.0056C17.7442 14.6746 17.75 14.3392 17.75 14C17.75 7.72999 15.758 2.75 14 2.75C12.242 2.75 10.25 7.72999 10.25 14C10.25 14.3587 10.2565 14.7132 10.2691 15.0628C11.4418 15.1854 12.6947 15.25 14 15.25C15.2851 15.25 16.5459 15.1594 17.7329 15.0056ZM20.2453 14.5677C20.2484 14.3793 20.25 14.1901 20.25 14C20.25 9.84045 19.493 6.08413 18.1818 3.55288C21.902 5.04339 24.641 8.46346 25.1606 12.5752C24.5724 13.2354 22.7171 14.0197 20.2453 14.5677ZM10.4736 17.5967C11.595 17.6977 12.7761 17.75 14 17.75C15.2042 17.75 16.3906 17.6817 17.5316 17.5552C16.9678 22.0521 15.4087 25.25 14 25.25C12.5956 25.25 11.0418 22.0718 10.4736 17.5967ZM7.75694 14.6878C7.0395 14.5447 6.37085 14.3761 5.76032 14.1844C4.20977 13.6975 3.19649 13.1007 2.83206 12.6343C3.33284 8.49624 6.08015 5.05052 9.81819 3.55288C8.50696 6.08413 7.75 9.84045 7.75 14C7.75 14.2305 7.75233 14.4599 7.75694 14.6878ZM7.91142 17.2635C8.19896 20.0979 8.86084 22.599 9.81819 24.4471C6.18346 22.9909 3.48546 19.6927 2.87871 15.7072C4.18305 16.3866 5.90417 16.9146 7.91142 17.2635Z" fill="black"/>
</svg>
