<svg width="20" height="18" viewBox="0 0 20 18" fill="none" xmlns="http://www.w3.org/2000/svg">
<path fill-rule="evenodd" clip-rule="evenodd" d="M13.7944 0.666761C12.588 0.666748 11.8104 0.810468 10.9189 1.24681C10.5889 1.40836 10.2792 1.60291 9.99168 1.82988C9.7152 1.61563 9.41794 1.43001 9.10155 1.27353C8.19281 0.824061 7.37527 0.666748 6.21216 0.666748C3.09707 0.666748 0.833374 3.2478 0.833374 6.59998C0.833374 9.13154 2.2449 11.577 4.87407 13.9417C6.25412 15.1829 8.01614 16.4112 9.27804 17.0646L10 17.4385L10.722 17.0646C11.9839 16.4112 13.746 15.1829 15.126 13.9417C17.7552 11.577 19.1667 9.13154 19.1667 6.59998C19.1667 3.28329 16.8817 0.679547 13.7944 0.666761ZM17.5 6.59998C17.5 8.58333 16.3219 10.6245 14.0115 12.7025C12.7519 13.8354 11.1325 14.9675 10 15.5615C8.86757 14.9675 7.24822 13.8354 5.9886 12.7025C3.67823 10.6245 2.50004 8.58333 2.50004 6.59998C2.50004 4.12318 4.06974 2.33341 6.21216 2.33341C7.13694 2.33341 7.70681 2.44307 8.36265 2.76745C8.75005 2.95906 9.09244 3.21206 9.38882 3.52822L10.002 4.18233L10.6096 3.52304C10.9126 3.19421 11.26 2.93545 11.6516 2.74377C12.2883 2.43216 12.8225 2.33342 13.7909 2.33342C15.9069 2.34219 17.5 4.15755 17.5 6.59998Z" fill="black"/>
</svg>
