<svg width="20" height="18" viewBox="0 0 20 18" fill="none" xmlns="http://www.w3.org/2000/svg">
<path fill-rule="evenodd" clip-rule="evenodd" d="M10.9189 1.24681C11.8104 0.810468 12.588 0.666747 13.7944 0.666761C16.8817 0.679547 19.1667 3.28329 19.1667 6.59998C19.1667 9.13154 17.7552 11.577 15.126 13.9417C13.746 15.1829 11.9839 16.4112 10.722 17.0646L10 17.4385L9.27804 17.0646C8.01614 16.4112 6.25412 15.1829 4.87407 13.9417C2.2449 11.577 0.833374 9.13154 0.833374 6.59998C0.833374 3.2478 3.09707 0.666748 6.21216 0.666748C7.37527 0.666748 8.19281 0.824061 9.10155 1.27353C9.41794 1.43001 9.7152 1.61563 9.99168 1.82988C10.2792 1.60291 10.5889 1.40836 10.9189 1.24681Z" fill="#BF0000"/>
</svg>
