<svg width="42" height="42" viewBox="0 0 42 42" fill="none" xmlns="http://www.w3.org/2000/svg">
<path fill-rule="evenodd" clip-rule="evenodd" d="M29.3334 0.166626H12.6667C5.76319 0.166626 0.166748 5.76307 0.166748 12.6666V29.3333C0.166748 36.2369 5.76319 41.8333 12.6667 41.8333H29.3334C36.237 41.8333 41.8334 36.2369 41.8334 29.3333V12.6666C41.8334 5.76307 36.237 0.166626 29.3334 0.166626ZM4.33342 12.6666C4.33342 8.06425 8.06437 4.33329 12.6667 4.33329H29.3334C33.9358 4.33329 37.6667 8.06425 37.6667 12.6666V29.3333C37.6667 33.9357 33.9358 37.6666 29.3334 37.6666H12.6667C8.06437 37.6666 4.33342 33.9357 4.33342 29.3333V12.6666ZM21.0001 31.4166C15.2471 31.4166 10.5834 26.7529 10.5834 21C10.5834 15.247 15.2471 10.5833 21.0001 10.5833C26.753 10.5833 31.4167 15.247 31.4167 21C31.4167 26.7529 26.753 31.4166 21.0001 31.4166ZM21.0001 27.25C24.4519 27.25 27.2501 24.4517 27.2501 21C27.2501 17.5482 24.4519 14.75 21.0001 14.75C17.5483 14.75 14.7501 17.5482 14.7501 21C14.7501 24.4517 17.5483 27.25 21.0001 27.25ZM33.5001 10.5833C33.5001 11.7339 32.5673 12.6666 31.4167 12.6666C30.2662 12.6666 29.3334 11.7339 29.3334 10.5833C29.3334 9.4327 30.2662 8.49996 31.4167 8.49996C32.5673 8.49996 33.5001 9.4327 33.5001 10.5833Z" fill="black"/>
</svg>
