<svg width="42" height="42" viewBox="0 0 42 42" fill="none" xmlns="http://www.w3.org/2000/svg">
<path fill-rule="evenodd" clip-rule="evenodd" d="M10.6533 8.50008C11.2658 3.94839 15.8144 0.166748 21 0.166748C26.1855 0.166748 30.7342 3.94839 31.3466 8.50008H37.3479C39.649 8.50008 41.5145 10.3656 41.5145 12.6667C41.5145 12.8639 41.5005 13.0608 41.4726 13.256L37.9012 38.256C37.608 40.3087 35.85 41.8334 33.7764 41.8334H8.22349C6.14995 41.8334 4.39194 40.3087 4.0987 38.256L0.527271 13.256C0.201834 10.9779 1.78475 8.8674 4.0628 8.54196C4.25799 8.51408 4.4549 8.50008 4.65206 8.50008H10.6533ZM27.0997 8.50008C26.4664 6.28774 23.9125 4.33342 21 4.33342C18.0874 4.33342 15.5335 6.28774 14.9002 8.50008H27.0997ZM4.65206 12.6667H10.5833V16.8334H14.75V12.6667H27.25V16.8334H31.4166V12.6667H37.3479L33.7764 37.6667H8.22349L4.65206 12.6667Z" fill="black"/>
</svg>
