<svg width="46" height="46" viewBox="0 0 46 46" fill="none" xmlns="http://www.w3.org/2000/svg">
<path fill-rule="evenodd" clip-rule="evenodd" d="M22.9999 45.9166C10.3434 45.9166 0.083252 35.6564 0.083252 22.9999C0.083252 10.3434 10.3434 0.083252 22.9999 0.083252C35.6564 0.083252 45.9166 10.3434 45.9166 22.9999C45.9166 35.6564 35.6564 45.9166 22.9999 45.9166ZM38.4155 33.6763C40.5179 30.6464 41.7499 26.967 41.7499 22.9999C41.7499 12.6446 33.3553 4.24992 22.9999 4.24992C12.6446 4.24992 4.24992 12.6446 4.24992 22.9999C4.24992 26.967 5.48197 30.6464 7.5843 33.6763C9.92899 30.5792 15.4387 29.2499 22.9999 29.2499C30.5612 29.2499 36.0708 30.5792 38.4155 33.6763ZM35.4263 37.0411C34.8166 34.8486 30.4361 33.4166 22.9999 33.4166C15.5637 33.4166 11.1833 34.8486 10.5735 37.0411C13.8818 39.9711 18.2331 41.7499 22.9999 41.7499C27.7667 41.7499 32.118 39.9711 35.4263 37.0411ZM22.9999 10.4999C17.9564 10.4999 14.6666 14.1578 14.6666 18.8333C14.6666 25.9736 18.3351 29.2499 22.9999 29.2499C27.6209 29.2499 31.3333 26.0824 31.3333 19.2499C31.3333 14.5032 28.0295 10.4999 22.9999 10.4999ZM18.8333 18.8333C18.8333 23.5609 20.5379 25.0833 22.9999 25.0833C25.4535 25.0833 27.1666 23.6216 27.1666 19.2499C27.1666 16.6466 25.5325 14.6666 22.9999 14.6666C20.3619 14.6666 18.8333 16.3662 18.8333 18.8333Z" fill="black"/>
</svg>
