<svg width="42" height="30" viewBox="0 0 42 30" fill="none" xmlns="http://www.w3.org/2000/svg">
<path fill-rule="evenodd" clip-rule="evenodd" d="M4.15909 0H38.5909C40.4737 0 42 1.67893 42 3.75V26.25C42 28.3211 40.4737 30 38.5909 30H4.15909C2.2763 30 0.75 28.3211 0.75 26.25V3.75C0.75 1.67893 2.2763 0 4.15909 0ZM4.5 3.75V26.25H38.25V3.75H4.5ZM8.25 18.75V22.5H12V18.75H8.25ZM13.875 22.5V18.75H19.5V22.5H13.875ZM30.75 18.75V22.5H34.5V18.75H30.75ZM25.125 22.5V18.75H28.875V22.5H25.125ZM13.875 9.375H8.25V15H13.875V9.375Z" fill="#757575"/>
</svg>
