<svg width="23" height="23" viewBox="0 0 23 23" fill="none" xmlns="http://www.w3.org/2000/svg">
<path fill-rule="evenodd" clip-rule="evenodd" d="M11.5003 22.9584C5.17206 22.9584 0.0419922 17.8283 0.0419922 11.5C0.0419922 5.17176 5.17206 0.041687 11.5003 0.041687C17.8286 0.041687 22.9587 5.17176 22.9587 11.5C22.9587 17.8283 17.8286 22.9584 11.5003 22.9584ZM11.5003 20.875C16.678 20.875 20.8753 16.6777 20.8753 11.5C20.8753 6.32235 16.678 2.12502 11.5003 2.12502C6.32266 2.12502 2.12533 6.32235 2.12533 11.5C2.12533 16.6777 6.32266 20.875 11.5003 20.875ZM8.07023 16.4033L11.5003 12.9732L14.9304 16.4033L16.4036 14.9301L12.9735 11.5L16.4036 8.06992L14.9304 6.59678L11.5003 10.0269L8.07023 6.59678L6.59709 8.06992L10.0272 11.5L6.59709 14.9301L8.07023 16.4033Z" fill="black"/>
</svg>
