<svg width="56" height="13" viewBox="0 0 56 13" fill="none" xmlns="http://www.w3.org/2000/svg">
<path d="M1.64 7.728C1.33067 7.728 1.05867 7.65867 0.824 7.52C0.589333 7.38133 0.402667 7.19467 0.264 6.96C0.136 6.71467 0.072 6.448 0.072 6.16C0.072 5.872 0.136 5.61067 0.264 5.376C0.402667 5.14133 0.589333 4.95467 0.824 4.816C1.05867 4.66667 1.33067 4.592 1.64 4.592C1.94933 4.592 2.216 4.66667 2.44 4.816C2.67467 4.95467 2.856 5.14133 2.984 5.376C3.12267 5.61067 3.192 5.872 3.192 6.16C3.192 6.448 3.12267 6.71467 2.984 6.96C2.856 7.19467 2.67467 7.38133 2.44 7.52C2.216 7.65867 1.94933 7.728 1.64 7.728ZM6.92125 7.728C6.61192 7.728 6.33992 7.65867 6.10525 7.52C5.87058 7.38133 5.68392 7.19467 5.54525 6.96C5.41725 6.71467 5.35325 6.448 5.35325 6.16C5.35325 5.872 5.41725 5.61067 5.54525 5.376C5.68392 5.14133 5.87058 4.95467 6.10525 4.816C6.33992 4.66667 6.61192 4.592 6.92125 4.592C7.23058 4.592 7.49725 4.66667 7.72125 4.816C7.95592 4.95467 8.13725 5.14133 8.26525 5.376C8.40392 5.61067 8.47325 5.872 8.47325 6.16C8.47325 6.448 8.40392 6.71467 8.26525 6.96C8.13725 7.19467 7.95592 7.38133 7.72125 7.52C7.49725 7.65867 7.23058 7.728 6.92125 7.728ZM12.2025 7.728C11.8932 7.728 11.6212 7.65867 11.3865 7.52C11.1518 7.38133 10.9652 7.19467 10.8265 6.96C10.6985 6.71467 10.6345 6.448 10.6345 6.16C10.6345 5.872 10.6985 5.61067 10.8265 5.376C10.9652 5.14133 11.1518 4.95467 11.3865 4.816C11.6212 4.66667 11.8932 4.592 12.2025 4.592C12.5118 4.592 12.7785 4.66667 13.0025 4.816C13.2372 4.95467 13.4185 5.14133 13.5465 5.376C13.6852 5.61067 13.7545 5.872 13.7545 6.16C13.7545 6.448 13.6852 6.71467 13.5465 6.96C13.4185 7.19467 13.2372 7.38133 13.0025 7.52C12.7785 7.65867 12.5118 7.728 12.2025 7.728ZM17.4838 7.728C17.1744 7.728 16.9024 7.65867 16.6678 7.52C16.4331 7.38133 16.2464 7.19467 16.1078 6.96C15.9798 6.71467 15.9158 6.448 15.9158 6.16C15.9158 5.872 15.9798 5.61067 16.1078 5.376C16.2464 5.14133 16.4331 4.95467 16.6678 4.816C16.9024 4.66667 17.1744 4.592 17.4838 4.592C17.7931 4.592 18.0598 4.66667 18.2838 4.816C18.5184 4.95467 18.6998 5.14133 18.8278 5.376C18.9664 5.61067 19.0358 5.872 19.0358 6.16C19.0358 6.448 18.9664 6.71467 18.8278 6.96C18.6998 7.19467 18.5184 7.38133 18.2838 7.52C18.0598 7.65867 17.7931 7.728 17.4838 7.728ZM26.2211 12V0.896H27.7091V12H26.2211ZM23.9491 2.24V0.896H27.5491V2.24H23.9491ZM29.528 11.088L33.624 6.768C34.04 6.34133 34.3653 5.97333 34.6 5.664C34.8347 5.344 35 5.05067 35.096 4.784C35.2027 4.51733 35.256 4.24 35.256 3.952C35.256 3.38667 35.0747 2.944 34.712 2.624C34.3493 2.304 33.88 2.144 33.304 2.144C32.7387 2.144 32.2427 2.28267 31.816 2.56C31.3893 2.82667 31.0107 3.24267 30.68 3.808L29.624 2.928C30.0613 2.20267 30.5893 1.65867 31.208 1.296C31.8267 0.922666 32.5413 0.735999 33.352 0.735999C34.0347 0.735999 34.6267 0.869333 35.128 1.136C35.64 1.40267 36.0347 1.776 36.312 2.256C36.5893 2.736 36.728 3.296 36.728 3.936C36.728 4.39467 36.6693 4.80533 36.552 5.168C36.4453 5.53067 36.248 5.904 35.96 6.288C35.6827 6.66133 35.2933 7.10933 34.792 7.632L31.48 11.04L29.528 11.088ZM29.528 12V11.088L30.808 10.656H36.984V12H29.528ZM41.6083 12.16C40.8829 12.16 40.2216 12.0267 39.6243 11.76C39.0376 11.4827 38.5416 11.0827 38.1363 10.56L39.1603 9.536C39.4056 9.90933 39.7416 10.208 40.1683 10.432C40.5949 10.6453 41.0696 10.752 41.5923 10.752C42.0829 10.752 42.5043 10.6613 42.8563 10.48C43.2189 10.288 43.5016 10.0213 43.7043 9.68C43.9176 9.33867 44.0243 8.944 44.0243 8.496C44.0243 8.03733 43.9176 7.64267 43.7043 7.312C43.5016 6.97067 43.2136 6.70933 42.8403 6.528C42.4669 6.34667 42.0243 6.256 41.5123 6.256C41.3203 6.256 41.1283 6.272 40.9363 6.304C40.7443 6.32533 40.5576 6.36267 40.3763 6.416L41.0163 5.552C41.2189 5.456 41.4376 5.38133 41.6723 5.328C41.9069 5.27467 42.1416 5.248 42.3763 5.248C42.9736 5.248 43.5069 5.38667 43.9763 5.664C44.4563 5.94133 44.8349 6.33067 45.1123 6.832C45.4003 7.33333 45.5443 7.91467 45.5443 8.576C45.5443 9.28 45.3736 9.904 45.0323 10.448C44.7016 10.9813 44.2429 11.4027 43.6563 11.712C43.0696 12.0107 42.3869 12.16 41.6083 12.16ZM40.3763 6.416V5.504L43.6243 1.808L45.4163 1.792L42.0723 5.584L40.3763 6.416ZM38.6643 2.24V0.896H45.4163V1.792L44.1043 2.24H38.6643ZM46.7936 8.176L50.8416 0.896H52.5376L48.4096 8.176H46.7936ZM46.7936 9.104V8.176L47.4336 7.76H55.3056V9.104H46.7936ZM52.2176 12V4.656H53.7056V12H52.2176Z" fill="#757575"/>
</svg>
