<svg width="20" height="14" viewBox="0 0 20 14" fill="none" xmlns="http://www.w3.org/2000/svg">
<path fill-rule="evenodd" clip-rule="evenodd" d="M19.1663 12C19.1663 12.9205 18.4202 13.6666 17.4997 13.6666H2.49967C1.5792 13.6666 0.833008 12.9205 0.833008 12V9.40671L1.24907 9.16603C2.01728 8.72165 2.49967 7.90328 2.49967 6.99998C2.49967 6.09668 2.01728 5.27831 1.24907 4.83392L0.833008 4.59325V1.99998C0.833008 1.07951 1.5792 0.333313 2.49967 0.333313H17.4997C18.4202 0.333313 19.1663 1.07951 19.1663 1.99998V4.59325L18.7503 4.83392C17.9821 5.27831 17.4997 6.09668 17.4997 6.99998C17.4997 7.90328 17.9821 8.72165 18.7503 9.16603L19.1663 9.40671V12ZM15.833 6.99998C15.833 5.66622 16.4655 4.44197 17.4997 3.6662V1.99998H12.4997C12.4997 2.46022 12.1266 2.83331 11.6663 2.83331C11.2061 2.83331 10.833 2.46022 10.833 1.99998H2.49967V3.6662C3.53385 4.44197 4.16634 5.66622 4.16634 6.99998C4.16634 8.33374 3.53385 9.55799 2.49967 10.3338V12H10.833C10.833 11.5397 11.2061 11.1666 11.6663 11.1666C12.1266 11.1666 12.4997 11.5397 12.4997 12H17.4997V10.3338C16.4655 9.55799 15.833 8.33374 15.833 6.99998ZM11.6663 10.3333C12.1266 10.3333 12.4997 9.96022 12.4997 9.49998C12.4997 9.03974 12.1266 8.66665 11.6663 8.66665C11.2061 8.66665 10.833 9.03974 10.833 9.49998C10.833 9.96022 11.2061 10.3333 11.6663 10.3333ZM12.4997 6.99998C12.4997 7.46022 12.1266 7.83331 11.6663 7.83331C11.2061 7.83331 10.833 7.46022 10.833 6.99998C10.833 6.53974 11.2061 6.16665 11.6663 6.16665C12.1266 6.16665 12.4997 6.53974 12.4997 6.99998ZM11.6663 5.33331C12.1266 5.33331 12.4997 4.96022 12.4997 4.49998C12.4997 4.03974 12.1266 3.66665 11.6663 3.66665C11.2061 3.66665 10.833 4.03974 10.833 4.49998C10.833 4.96022 11.2061 5.33331 11.6663 5.33331Z" fill="#757575"/>
</svg>
