<svg width="24" height="26" viewBox="0 0 24 26" fill="none" xmlns="http://www.w3.org/2000/svg">
<path fill-rule="evenodd" clip-rule="evenodd" d="M13.25 14.25C13.25 11.9202 14.8435 9.96258 17 9.40752V0.5L19.5 0.5V9.40752C21.6565 9.96258 23.25 11.9202 23.25 14.25C23.25 17.0114 21.0114 19.25 18.25 19.25C15.4886 19.25 13.25 17.0114 13.25 14.25ZM19.5 21.75V25.5H17V21.75H19.5ZM0.75 8C0.75 5.6702 2.34347 3.71258 4.5 3.15752V0.5L7 0.5V3.15752C9.15653 3.71258 10.75 5.6702 10.75 8C10.75 10.7614 8.51142 13 5.75 13C2.98857 13 0.75 10.7614 0.75 8ZM4.5 15.5V25.5H7V15.5H4.5ZM5.75 10.5C4.36929 10.5 3.25 9.38071 3.25 8C3.25 6.61929 4.36929 5.5 5.75 5.5C7.13071 5.5 8.25 6.61929 8.25 8C8.25 9.38071 7.13071 10.5 5.75 10.5ZM18.25 16.75C16.8693 16.75 15.75 15.6307 15.75 14.25C15.75 12.8693 16.8693 11.75 18.25 11.75C19.6307 11.75 20.75 12.8693 20.75 14.25C20.75 15.6307 19.6307 16.75 18.25 16.75Z" fill="black"/>
</svg>
