<svg width="20" height="18" viewBox="0 0 20 18" fill="none" xmlns="http://www.w3.org/2000/svg">
<path fill-rule="evenodd" clip-rule="evenodd" d="M13.794 0.666761C12.5876 0.666748 11.81 0.810468 10.9186 1.24681C10.5885 1.40836 10.2789 1.60291 9.99132 1.82988C9.71483 1.61563 9.41757 1.43001 9.10118 1.27353C8.19244 0.824061 7.37491 0.666748 6.2118 0.666748C3.0967 0.666748 0.833008 3.2478 0.833008 6.59998C0.833008 9.13154 2.24453 11.577 4.87371 13.9417C6.25375 15.1829 8.01578 16.4112 9.27768 17.0646L9.99967 17.4385L10.7217 17.0646C11.9836 16.4112 13.7456 15.1829 15.1256 13.9417C17.7548 11.577 19.1663 9.13154 19.1663 6.59998C19.1663 3.28329 16.8813 0.679547 13.794 0.666761ZM17.4997 6.59998C17.4997 8.58333 16.3215 10.6245 14.0111 12.7025C12.7515 13.8354 11.1321 14.9675 9.99967 15.5615C8.86721 14.9675 7.24786 13.8354 5.98824 12.7025C3.67786 10.6245 2.49967 8.58333 2.49967 6.59998C2.49967 4.12318 4.06938 2.33341 6.2118 2.33341C7.13658 2.33341 7.70645 2.44307 8.36229 2.76745C8.74968 2.95906 9.09207 3.21206 9.38845 3.52822L10.0016 4.18233L10.6092 3.52304C10.9123 3.19421 11.2597 2.93545 11.6513 2.74377C12.2879 2.43216 12.8222 2.33342 13.7906 2.33342C15.9065 2.34219 17.4997 4.15755 17.4997 6.59998Z" fill="black"/>
</svg>
