<svg width="20" height="20" viewBox="0 0 20 20" fill="none" xmlns="http://www.w3.org/2000/svg">
<path fill-rule="evenodd" clip-rule="evenodd" d="M13.7945 1.66676C12.5881 1.66675 11.8105 1.81047 10.919 2.24681C10.589 2.40836 10.2794 2.60291 9.9918 2.82988C9.71532 2.61563 9.41806 2.43001 9.10167 2.27353C8.19293 1.82406 7.37539 1.66675 6.21228 1.66675C3.09719 1.66675 0.833496 4.2478 0.833496 7.59998C0.833496 10.1315 2.24502 12.577 4.8742 14.9417C6.25424 16.1829 8.01626 17.4112 9.27816 18.0646L10.0002 18.4385L10.7222 18.0646C11.9841 17.4112 13.7461 16.1829 15.1261 14.9417C17.7553 12.577 19.1668 10.1315 19.1668 7.59998C19.1668 4.28329 16.8818 1.67955 13.7945 1.66676ZM17.5002 7.59998C17.5002 9.58333 16.322 11.6245 14.0116 13.7025C12.752 14.8354 11.1326 15.9675 10.0002 16.5615C8.86769 15.9675 7.24835 14.8354 5.98873 13.7025C3.67835 11.6245 2.50016 9.58333 2.50016 7.59998C2.50016 5.12318 4.06986 3.33341 6.21228 3.33341C7.13706 3.33341 7.70693 3.44307 8.36277 3.76745C8.75017 3.95906 9.09256 4.21206 9.38894 4.52822L10.0021 5.18233L10.6097 4.52304C10.9128 4.19421 11.2602 3.93545 11.6518 3.74377C12.2884 3.43216 12.8227 3.33342 13.7911 3.33342C15.907 3.34219 17.5002 5.15755 17.5002 7.59998Z" fill="#BF0000"/>
</svg>
