<svg width="103" height="25" viewBox="0 0 103 25" fill="none" xmlns="http://www.w3.org/2000/svg">
<path d="M0.888 24V1.216H7.288V24H0.888ZM6.104 24V18.56H16.76V24H6.104ZM29.6833 24.448C27.8913 24.448 26.2379 24.1493 24.7233 23.552C23.2299 22.9547 21.9179 22.1227 20.7873 21.056C19.6779 19.9893 18.8139 18.7307 18.1953 17.28C17.5766 15.8293 17.2673 14.2613 17.2673 12.576C17.2673 10.8693 17.5659 9.30133 18.1633 7.872C18.7819 6.44267 19.6459 5.19467 20.7552 4.128C21.8646 3.06133 23.1659 2.24 24.6593 1.664C26.1739 1.06667 27.8273 0.768 29.6193 0.768C31.4113 0.768 33.0539 1.06667 34.5473 1.664C36.0619 2.24 37.3739 3.06133 38.4833 4.128C39.5926 5.19467 40.4459 6.45333 41.0433 7.904C41.6619 9.33333 41.9713 10.9013 41.9713 12.608C41.9713 14.2933 41.6619 15.8613 41.0433 17.312C40.4459 18.7413 39.5926 20 38.4833 21.088C37.3739 22.1547 36.0726 22.9867 34.5793 23.584C33.0859 24.16 31.4539 24.448 29.6833 24.448ZM29.6193 18.816C30.8139 18.816 31.8486 18.56 32.7233 18.048C33.5979 17.536 34.2699 16.8107 34.7393 15.872C35.2086 14.9333 35.4433 13.8347 35.4433 12.576C35.4433 11.6373 35.3046 10.7947 35.0273 10.048C34.7713 9.28 34.3873 8.62933 33.8753 8.096C33.3633 7.54133 32.7446 7.12533 32.0193 6.848C31.3153 6.54933 30.5153 6.4 29.6193 6.4C28.4246 6.4 27.3899 6.656 26.5153 7.168C25.6406 7.65867 24.9686 8.37333 24.4993 9.312C24.0299 10.2293 23.7953 11.3173 23.7953 12.576C23.7953 13.536 23.9233 14.4 24.1793 15.168C24.4566 15.936 24.8513 16.5973 25.3633 17.152C25.8753 17.6853 26.4833 18.1013 27.1873 18.4C27.9126 18.6773 28.7233 18.816 29.6193 18.816ZM56.2138 24.384C54.4431 24.384 52.8004 24.096 51.2858 23.52C49.7924 22.9227 48.4804 22.0907 47.3498 21.024C46.2404 19.9573 45.3764 18.7093 44.7578 17.28C44.1391 15.8507 43.8298 14.2933 43.8298 12.608C43.8298 10.9013 44.1498 9.33333 44.7898 7.904C45.4511 6.47467 46.3578 5.23733 47.5098 4.192C48.6831 3.12533 50.0378 2.304 51.5738 1.728C53.1098 1.13067 54.7524 0.831999 56.5018 0.831999C58.6138 0.831999 60.5018 1.19467 62.1658 1.92C63.8511 2.64533 65.2164 3.62667 66.2618 4.864L61.9418 9.184C61.1524 8.26667 60.3311 7.584 59.4778 7.136C58.6244 6.688 57.6004 6.464 56.4058 6.464C55.2751 6.464 54.2511 6.72 53.3338 7.232C52.4164 7.72267 51.6804 8.42667 51.1258 9.344C50.5924 10.2613 50.3258 11.3387 50.3258 12.576C50.3258 13.8133 50.5711 14.9013 51.0618 15.84C51.5738 16.7573 52.2778 17.472 53.1738 17.984C54.0698 18.496 55.1151 18.752 56.3098 18.752C57.4618 18.752 58.4324 18.528 59.2218 18.08C60.0111 17.632 60.6084 16.992 61.0138 16.16C61.4404 15.328 61.6538 14.3467 61.6538 13.216L66.0378 16L55.4458 15.68V10.56H68.0858V11.52C68.0858 14.2507 67.5844 16.576 66.5818 18.496C65.6004 20.416 64.2138 21.8773 62.4218 22.88C60.6511 23.8827 58.5818 24.384 56.2138 24.384ZM82.1208 24.448C80.3288 24.448 78.6754 24.1493 77.1608 23.552C75.6674 22.9547 74.3554 22.1227 73.2248 21.056C72.1154 19.9893 71.2514 18.7307 70.6328 17.28C70.0141 15.8293 69.7048 14.2613 69.7048 12.576C69.7048 10.8693 70.0034 9.30133 70.6008 7.872C71.2194 6.44267 72.0834 5.19467 73.1927 4.128C74.3021 3.06133 75.6034 2.24 77.0968 1.664C78.6114 1.06667 80.2648 0.768 82.0568 0.768C83.8488 0.768 85.4914 1.06667 86.9848 1.664C88.4994 2.24 89.8114 3.06133 90.9208 4.128C92.0301 5.19467 92.8834 6.45333 93.4808 7.904C94.0994 9.33333 94.4088 10.9013 94.4088 12.608C94.4088 14.2933 94.0994 15.8613 93.4808 17.312C92.8834 18.7413 92.0301 20 90.9208 21.088C89.8114 22.1547 88.5101 22.9867 87.0168 23.584C85.5234 24.16 83.8914 24.448 82.1208 24.448ZM82.0568 18.816C83.2514 18.816 84.2861 18.56 85.1608 18.048C86.0354 17.536 86.7074 16.8107 87.1768 15.872C87.6461 14.9333 87.8808 13.8347 87.8808 12.576C87.8808 11.6373 87.7421 10.7947 87.4648 10.048C87.2088 9.28 86.8248 8.62933 86.3128 8.096C85.8008 7.54133 85.1821 7.12533 84.4568 6.848C83.7528 6.54933 82.9528 6.4 82.0568 6.4C80.8621 6.4 79.8274 6.656 78.9528 7.168C78.0781 7.65867 77.4061 8.37333 76.9368 9.312C76.4674 10.2293 76.2328 11.3173 76.2328 12.576C76.2328 13.536 76.3608 14.4 76.6168 15.168C76.8941 15.936 77.2888 16.5973 77.8008 17.152C78.3128 17.6853 78.9208 18.1013 79.6248 18.4C80.3501 18.6773 81.1608 18.816 82.0568 18.816ZM99.1475 24.384C98.1448 24.384 97.3128 24.0427 96.6515 23.36C95.9902 22.6773 95.6595 21.8453 95.6595 20.864C95.6595 19.8613 95.9902 19.0187 96.6515 18.336C97.3128 17.6533 98.1448 17.312 99.1475 17.312C100.15 17.312 100.972 17.6533 101.612 18.336C102.273 19.0187 102.604 19.8613 102.604 20.864C102.604 21.8453 102.273 22.6773 101.612 23.36C100.972 24.0427 100.15 24.384 99.1475 24.384Z" fill="black"/>
</svg>
