<svg width="14" height="14" viewBox="0 0 14 14" fill="none" xmlns="http://www.w3.org/2000/svg">
<path fill-rule="evenodd" clip-rule="evenodd" d="M5.66634 11.0002C2.72082 11.0002 0.333008 8.61235 0.333008 5.66683C0.333008 2.72131 2.72082 0.333496 5.66634 0.333496C8.61186 0.333496 10.9997 2.72131 10.9997 5.66683C10.9997 6.89933 10.5816 8.03419 9.87953 8.93733L13.471 12.5288L12.5282 13.4716L8.9367 9.88012C8.03359 10.5821 6.89878 11.0002 5.66634 11.0002ZM9.66638 5.66675C9.66638 7.87589 7.87552 9.66675 5.66638 9.66675C3.45724 9.66675 1.66638 7.87589 1.66638 5.66675C1.66638 3.45761 3.45724 1.66675 5.66638 1.66675C7.87552 1.66675 9.66638 3.45761 9.66638 5.66675Z" fill="#757575"/>
</svg>
