<svg width="10" height="10" viewBox="0 0 10 10" fill="none" xmlns="http://www.w3.org/2000/svg">
<path fill-rule="evenodd" clip-rule="evenodd" d="M6.82578 2.91665L7.59343 4.45196L8.74996 5.22297V6.66665H8.26217C8.09057 6.18115 7.62755 5.83331 7.08329 5.83331C6.53904 5.83331 6.07602 6.18115 5.90442 6.66665H4.0955C3.9239 6.18115 3.46088 5.83331 2.91663 5.83331C2.37237 5.83331 1.90935 6.18115 1.73775 6.66665H1.24996V2.91665H6.82578ZM8.74996 7.49998H8.26217C8.09057 7.98548 7.62755 8.33331 7.08329 8.33331C6.53904 8.33331 6.07602 7.98548 5.90442 7.49998H4.0955C3.9239 7.98548 3.46088 8.33331 2.91663 8.33331C2.37237 8.33331 1.90935 7.98548 1.73775 7.49998H1.24996C0.789722 7.49998 0.416626 7.12688 0.416626 6.66665V2.91665C0.416626 2.45641 0.789722 2.08331 1.24996 2.08331H6.82578C7.14142 2.08331 7.42997 2.26165 7.57113 2.54397L8.23982 3.88134L9.58329 4.77699V6.66665C9.58329 7.12688 9.2102 7.49998 8.74996 7.49998ZM3.33329 7.08331C3.33329 7.31343 3.14674 7.49998 2.91663 7.49998C2.68651 7.49998 2.49996 7.31343 2.49996 7.08331C2.49996 6.85319 2.68651 6.66665 2.91663 6.66665C3.14674 6.66665 3.33329 6.85319 3.33329 7.08331ZM7.49996 7.08331C7.49996 7.31343 7.31341 7.49998 7.08329 7.49998C6.85317 7.49998 6.66663 7.31343 6.66663 7.08331C6.66663 6.85319 6.85317 6.66665 7.08329 6.66665C7.31341 6.66665 7.49996 6.85319 7.49996 7.08331Z" fill="black"/>
</svg>
