<svg width="10" height="10" viewBox="0 0 10 10" fill="none" xmlns="http://www.w3.org/2000/svg">
<path fill-rule="evenodd" clip-rule="evenodd" d="M2.29047 2.91665C2.15372 2.69305 2.08337 2.41784 2.08337 2.08331C2.08337 1.42377 2.57935 0.833313 3.33337 0.833313C4.08837 0.833313 4.69724 1.33899 5.00004 2.13074C5.30285 1.33899 5.91171 0.833313 6.66671 0.833313C7.42073 0.833313 7.91671 1.42377 7.91671 2.08331C7.91671 2.41784 7.84636 2.69305 7.70961 2.91665H8.33337C8.79361 2.91665 9.16671 3.28974 9.16671 3.74998V4.58331C9.16671 5.04355 8.79361 5.41665 8.33337 5.41665V8.33331C8.33337 8.79355 7.96028 9.16665 7.50004 9.16665H2.50004C2.0398 9.16665 1.66671 8.79355 1.66671 8.33331V5.41665C1.20647 5.41665 0.833374 5.04355 0.833374 4.58331V3.74998C0.833374 3.28974 1.20647 2.91665 1.66671 2.91665H2.29047ZM4.58337 3.74998H1.66671V4.58331H4.58337V3.74998ZM8.33337 4.58331H5.41671V3.74998H8.33337V4.58331ZM4.58337 8.33331V5.41665H2.50004V8.33331H4.58337ZM7.50004 8.33331H5.41671V5.41665H7.50004V8.33331ZM3.33337 1.66665C3.07489 1.66665 2.91671 1.85496 2.91671 2.08331C2.91671 2.60549 3.34046 2.85378 4.34563 2.90602C4.23392 2.12981 3.81761 1.66665 3.33337 1.66665ZM5.62504 2.90602C5.73676 2.12981 6.15306 1.66665 6.6373 1.66665C6.89578 1.66665 7.05397 1.85496 7.05397 2.08331C7.05397 2.60549 6.63022 2.85378 5.62504 2.90602Z" fill="black"/>
</svg>
