<svg width="16" height="20" viewBox="0 0 16 20" fill="none" xmlns="http://www.w3.org/2000/svg">
<path fill-rule="evenodd" clip-rule="evenodd" d="M8 19.4396L8.54811 18.961C13.1572 14.9364 15.5 11.4222 15.5 8.33325C15.5 3.95881 12.0858 0.833252 8 0.833252C3.91421 0.833252 0.5 3.95881 0.5 8.33325C0.5 11.4222 2.84276 14.9364 7.45189 18.961L8 19.4396ZM8 17.2194C4.08884 13.6945 2.16667 10.7076 2.16667 8.33325C2.16667 4.91375 4.80343 2.49992 8 2.49992C11.1966 2.49992 13.8333 4.91375 13.8333 8.33325C13.8333 10.7076 11.9112 13.6945 8 17.2194ZM8 4.16659C10.3012 4.16659 12.1667 6.03207 12.1667 8.33325C12.1667 10.6344 10.3012 12.4999 8 12.4999C5.69881 12.4999 3.83333 10.6344 3.83333 8.33325C3.83333 6.03207 5.69881 4.16659 8 4.16659ZM5.5 8.33325C5.5 6.95254 6.61929 5.83325 8 5.83325C9.38071 5.83325 10.5 6.95254 10.5 8.33325C10.5 9.71396 9.38071 10.8333 8 10.8333C6.61929 10.8333 5.5 9.71396 5.5 8.33325Z" fill="black"/>
</svg>
