<svg width="20" height="18" viewBox="0 0 20 18" fill="none" xmlns="http://www.w3.org/2000/svg">
<path fill-rule="evenodd" clip-rule="evenodd" d="M13.794 0.6667C12.5876 0.666687 11.81 0.810407 10.9186 1.24675C10.5885 1.4083 10.2789 1.60285 9.99132 1.82982C9.71483 1.61557 9.41757 1.42995 9.10118 1.27347C8.19244 0.824 7.37491 0.666687 6.2118 0.666687C3.0967 0.666687 0.833008 3.24774 0.833008 6.59992C0.833008 9.13148 2.24453 11.5769 4.87371 13.9416C6.25375 15.1828 8.01578 16.4111 9.27768 17.0646L9.99967 17.4385L10.7217 17.0646C11.9836 16.4111 13.7456 15.1828 15.1256 13.9416C17.7548 11.5769 19.1663 9.13148 19.1663 6.59992C19.1663 3.28322 16.8813 0.679486 13.794 0.6667ZM17.4997 6.59992C17.4997 8.58327 16.3215 10.6245 14.0111 12.7024C12.7515 13.8353 11.1321 14.9675 9.99967 15.5614C8.86721 14.9675 7.24786 13.8353 5.98824 12.7024C3.67786 10.6245 2.49967 8.58327 2.49967 6.59992C2.49967 4.12312 4.06938 2.33335 6.2118 2.33335C7.13658 2.33335 7.70645 2.44301 8.36229 2.76739C8.74968 2.95899 9.09207 3.212 9.38845 3.52816L10.0016 4.18227L10.6092 3.52298C10.9123 3.19415 11.2597 2.93538 11.6513 2.74371C12.2879 2.4321 12.8222 2.33335 13.7906 2.33336C15.9065 2.34213 17.4997 4.15749 17.4997 6.59992Z" fill="black"/>
</svg>
