<svg width="18" height="18" viewBox="0 0 18 18" fill="none" xmlns="http://www.w3.org/2000/svg">
<path fill-rule="evenodd" clip-rule="evenodd" d="M10.667 4.00002C10.667 4.23954 10.6923 4.47316 10.7403 4.69836L6.51444 6.81127C5.90335 6.10993 5.0036 5.66669 4.00033 5.66669C2.15938 5.66669 0.666992 7.15907 0.666992 9.00002C0.666992 10.841 2.15938 12.3334 4.00033 12.3334C5.0036 12.3334 5.90335 11.8901 6.51444 11.1888L10.7403 13.3017C10.6923 13.5269 10.667 13.7605 10.667 14C10.667 15.841 12.1594 17.3334 14.0003 17.3334C15.8413 17.3334 17.3337 15.841 17.3337 14C17.3337 12.1591 15.8413 10.6667 14.0003 10.6667C12.997 10.6667 12.0973 11.1099 11.4862 11.8113L7.26039 9.69836C7.3084 9.47316 7.33366 9.23954 7.33366 9.00002C7.33366 8.7605 7.3084 8.52688 7.26039 8.30168L11.4862 6.18878C12.0973 6.89012 12.997 7.33335 14.0003 7.33335C15.8413 7.33335 17.3337 5.84097 17.3337 4.00002C17.3337 2.15907 15.8413 0.666687 14.0003 0.666687C12.1594 0.666687 10.667 2.15907 10.667 4.00002ZM5.66699 9.00002C5.66699 9.9205 4.9208 10.6667 4.00033 10.6667C3.07985 10.6667 2.33366 9.9205 2.33366 9.00002C2.33366 8.07955 3.07985 7.33335 4.00033 7.33335C4.9208 7.33335 5.66699 8.07955 5.66699 9.00002ZM14.0003 5.66669C14.9208 5.66669 15.667 4.9205 15.667 4.00002C15.667 3.07955 14.9208 2.33335 14.0003 2.33335C13.0799 2.33335 12.3337 3.07955 12.3337 4.00002C12.3337 4.9205 13.0799 5.66669 14.0003 5.66669ZM15.667 14C15.667 14.9205 14.9208 15.6667 14.0003 15.6667C13.0799 15.6667 12.3337 14.9205 12.3337 14C12.3337 13.0795 13.0799 12.3334 14.0003 12.3334C14.9208 12.3334 15.667 13.0795 15.667 14Z" fill="black"/>
</svg>
