<svg width="20" height="13" viewBox="0 0 20 13" fill="none" xmlns="http://www.w3.org/2000/svg">
<path fill-rule="evenodd" clip-rule="evenodd" d="M13.6513 1.83341L15.1866 4.90403L17.4997 6.44607V9.33341H16.5241C16.1809 8.36242 15.2549 7.66675 14.1663 7.66675C13.0778 7.66675 12.1518 8.36242 11.8086 9.33341H8.19075C7.84756 8.36242 6.92152 7.66675 5.83301 7.66675C4.74449 7.66675 3.81846 8.36242 3.47526 9.33341H2.49967V1.83341H13.6513ZM17.4997 11.0001H16.5241C16.1809 11.9711 15.2549 12.6667 14.1663 12.6667C13.0778 12.6667 12.1518 11.9711 11.8086 11.0001H8.19075C7.84756 11.9711 6.92152 12.6667 5.83301 12.6667C4.74449 12.6667 3.81846 11.9711 3.47526 11.0001H2.49967C1.5792 11.0001 0.833008 10.2539 0.833008 9.33341V1.83341C0.833008 0.91294 1.5792 0.166748 2.49967 0.166748H13.6513C14.2826 0.166748 14.8597 0.523419 15.142 1.08806L16.4794 3.7628L19.1663 5.55409V9.33341C19.1663 10.2539 18.4202 11.0001 17.4997 11.0001ZM6.66634 10.1667C6.66634 10.627 6.29324 11.0001 5.83301 11.0001C5.37277 11.0001 4.99967 10.627 4.99967 10.1667C4.99967 9.70651 5.37277 9.33341 5.83301 9.33341C6.29324 9.33341 6.66634 9.70651 6.66634 10.1667ZM14.9997 10.1667C14.9997 10.627 14.6266 11.0001 14.1663 11.0001C13.7061 11.0001 13.333 10.627 13.333 10.1667C13.333 9.70651 13.7061 9.33342 14.1663 9.33342C14.6266 9.33342 14.9997 9.70651 14.9997 10.1667Z" fill="black"/>
</svg>
